<?xml version="1.0" encoding="UTF-8" standalone="no"?>

<svg
   version="1.1"
   id="svg2"
   xml:space="preserve"
   width="2829"
   height="2829"
   viewBox="0 0 2829 2829"
   xmlns:inkscape="http://www.inkscape.org/namespaces/inkscape"
   xmlns:sodipodi="http://sodipodi.sourceforge.net/DTD/sodipodi-0.dtd"
   xmlns="http://www.w3.org/2000/svg"
   xmlns:svg="http://www.w3.org/2000/svg"><defs
     id="defs6" /><sodipodi:namedview
     id="namedview4"
     pagecolor="#ffffff"
     bordercolor="#666666"
     borderopacity="1.0"
     inkscape:pageshadow="2"
     inkscape:pageopacity="0.0"
     inkscape:pagecheckerboard="0" /><g
     id="g8"
     inkscape:groupmode="layer"
     inkscape:label="ink_ext_XXXXXX"
     transform="matrix(1.3333333,0,0,-1.3333333,0,2829.3333)"><g
       id="g10"
       transform="scale(0.1)"><path
         d="M 11399.1,18049 H 9862.17 c -124.46,0 -225.43,211.2 -225.43,211.2 0,116.7 100.97,787.4 225.43,787.4 h 1536.93 c 124.4,0 225.4,-670.7 225.4,-787.4 0,0 -101,-211.2 -225.4,-211.2"
         style="fill:#abc1c6;fill-opacity:1;fill-rule:nonzero;stroke:none"
         id="path12" /><path
         d="M 11806.9,14150.4 11359.7,18049 H 9862.17 c 0,0 -427.04,-3194.4 -455.86,-3898.6 0,-1046.6 -950.63,-1603.6 -950.63,-2314.2 V 2858 c 0,-601.8 534.56,-729.8 720.18,-729.8 h 2861.54 c 185.5,0 720.1,128 720.1,729.8 v 8978.2 c 0,528.2 -921.8,1219.5 -950.6,2314.2"
         style="fill:#b8d0d5;fill-opacity:1;fill-rule:nonzero;stroke:none"
         id="path14" /><path
         d="M 11540.6,15763.6 H 9680.3 c -73.12,-677.6 -135.49,-1310.4 -145.43,-1578.7 0,-1037.4 -848.75,-1589.5 -848.75,-2293.7 V 2992.3 c 0,-596.4 477.33,-723.3 643.03,-723.3 H 11884 c 165.8,0 643.1,126.9 643.1,723.3 v 8898.9 c 0,523.4 -823,1208.6 -848.8,2293.7 0,0 -64.5,901.1 -137.7,1578.7"
         style="fill:#ec9c30;fill-opacity:1;fill-rule:nonzero;stroke:none"
         id="path16" /><path
         d="m 11672.4,14265.6 c -17.3,301.2 -65.2,880.5 -131.8,1498 H 9680.3 c -66.6,-617.5 -124.22,-1196.8 -141.43,-1498 h 2133.53"
         style="fill:#f9f9b4;fill-opacity:1;fill-rule:nonzero;stroke:none"
         id="path18" /><path
         d="m 8455.68,4061.5 h 4301.82 v 7220.97 H 8455.68 Z"
         style="fill:#400611;fill-opacity:1;fill-rule:nonzero;stroke:none"
         id="path20" /><path
         d="m 11537.1,19021.1 c 0,-42.8 -37,-77.5 -82.5,-77.5 h -1648 c -45.56,0 -82.49,34.7 -82.49,77.5 0,42.8 36.93,77.5 82.49,77.5 h 1648 c 45.5,0 82.5,-34.7 82.5,-77.5"
         style="fill:#b8d0d5;fill-opacity:1;fill-rule:nonzero;stroke:none"
         id="path22" /><path
         d="m 12650.2,5565.8 c 0,-567.4 -734,-1027.4 -1639.5,-1027.4 h -808.2 c -905.47,0 -1639.54,460 -1639.54,1027.4 v 4082.5 c 0,567.4 734.07,1027.4 1639.54,1027.4 h 808.2 c 905.5,0 1639.5,-460 1639.5,-1027.4 V 5565.8"
         style="fill:#d2881c;fill-opacity:1;fill-rule:nonzero;stroke:none"
         id="path24" /><path
         d="m 12510.9,5702.7 c 0,-529.3 -684,-958.4 -1527.7,-958.4 H 10230 c -843.77,0 -1527.75,429.1 -1527.75,958.4 v 3808.7 c 0,529.3 683.98,958.4 1527.75,958.4 h 753.2 c 843.7,0 1527.7,-429.1 1527.7,-958.4 V 5702.7"
         style="fill:#ffffff;fill-opacity:1;fill-rule:nonzero;stroke:none"
         id="path26" /><path
         d="m 12224.6,9407.4 c 0,491.3 -581.2,889.6 -1298.1,889.6 h -639.8 c -716.93,0 -1298.12,-398.3 -1298.12,-889.6 V 7998.1 c 0,0 961.81,408.6 1642.72,939.4 681,530.6 1593.3,469.9 1593.3,469.9"
         style="fill:#d2881c;fill-opacity:1;fill-rule:nonzero;stroke:none"
         id="path28" /><path
         d="m 8988.58,5806.7 c 0,-491.3 581.22,-889.6 1298.12,-889.6 h 639.8 c 716.9,0 1298.1,398.3 1298.1,889.6 V 7216 c 0,0 -961.8,-408.6 -1642.7,-939.3 -681.01,-530.7 -1593.32,-470 -1593.32,-470"
         style="fill:#d2881c;fill-opacity:1;fill-rule:nonzero;stroke:none"
         id="path30" /><path
         d="m 9344.58,7039.2 c 0,-212.3 0,-424.6 0,-636.9 52.35,13.6 87.45,31.8 105.28,51.8 17.96,19.9 28.55,51.6 31.6,94.7 3.13,43.1 4.76,114.7 4.76,214.8 0,20.4 -0.94,66.6 -2.61,138.5 -1.78,71.9 -5.08,114.4 -10.21,127.5 -5.09,13 -14.08,21.8 -26.88,26.2 -12.73,4.5 -31.71,2.9 -56.67,-4.3 -15.14,-4.3 -30.12,-8.4 -45.27,-12.3 m 0,544.9 c 0,-149.2 0,-298.5 0,-447.7 15.15,3.9 30.13,8 45.27,12.4 28.29,8 50.65,23.3 66.94,45.1 16.16,21.6 25.52,52.2 28.13,91.4 2.61,39.3 3.78,88.2 3.78,146.7 0.09,81.9 -7.77,132.3 -23.41,151.4 -15.67,18.9 -40.83,22.9 -75.44,13 -15.14,-4.2 -30.12,-8.4 -45.27,-12.3 m 223.48,-423.7 c 103.94,3.1 175.63,-8.3 214.76,-43.9 39.29,-35.1 58.83,-99.4 58.91,-193.7 0,-143.7 -36.11,-269.3 -108.29,-372.5 -72.23,-102.6 -183.91,-186.9 -335.12,-231.2 -138.99,-40.4 -277.99,-64.7 -416.94,-67.4 -17.02,-0.3 -25.62,8.6 -25.57,26.2 0,17 0,34.1 0,51.2 -0.05,14.2 7.57,24.6 23.04,31.7 32.28,16 48.61,39.6 48.61,69.1 0,343 0,686.1 0,1029.1 0,14.2 -2.32,23.8 -6.8,28.7 -4.63,4.9 -18.23,12.1 -40.95,22.5 -11.44,5 -18.08,10.6 -20.08,16.8 -1.99,6.3 -2.97,21.6 -2.97,46.1 0,21.5 2.93,36.1 8.92,43.5 5.94,7.4 16.32,11.3 31.19,11.7 155.73,4.8 311.41,36.5 467.22,87.2 112.61,36.9 198.97,45.2 259.22,14.5 60.27,-30.3 90.38,-88.3 90.34,-177.1 0,-74 -23.69,-147.6 -71.16,-219.3 -47.51,-71.5 -105.61,-130.2 -174.33,-173.2"
         style="fill:#400611;fill-opacity:1;fill-rule:nonzero;stroke:none"
         id="path32" /><path
         d="m 10299.7,8021.2 c 0,-162.3 0,-324.6 0,-486.9 19.2,11.7 38.5,23.4 57.8,35.3 15.9,9.6 27.7,20.3 35,31.6 7.4,11.3 13.2,29.6 17.1,54.8 6.9,44.6 12.4,72.2 16.6,82.7 4.3,10.6 10.9,18.8 20.1,24.4 44.9,27.9 70.3,41.8 76.2,41.9 6,0 9,-12.5 9,-37.4 0,-94.7 0,-189.3 0,-284 0,-17.6 -2.8,-30.9 -8.5,-39.9 -5.7,-8.9 -23.4,-22.6 -52.9,-41 -19.3,-12 -32.2,-16.5 -38.7,-13.4 -6.6,3.1 -13,19.2 -19.3,48.3 -6.2,26.3 -12.3,41 -18.3,44.1 -5.9,3.2 -15.2,0.9 -27.7,-6.7 -22.2,-13.6 -44.3,-27.1 -66.4,-40.5 0,-195.8 0,-391.6 0,-587.4 14.9,9.1 30.1,18.2 45,27.4 27.9,17 47.1,36.5 57.7,58.7 10.5,22.1 27.3,77.6 50.6,166.4 9.7,37.3 19.6,63.9 29.9,80 10.3,16 28.2,32 53.7,47.9 35.3,22.1 52.9,21.7 52.9,-1 0,-6.8 -1.2,-17.5 -3.4,-32 -10.5,-71.2 -21.2,-142.2 -31.6,-213.3 -5.7,-38.8 -10.3,-62.9 -14,-72.3 -3.8,-9.4 -15.2,-20.1 -34.6,-32.2 -189.6,-118 -379.2,-233.7 -568.67,-332.7 -14.23,-7.4 -23.39,-8.9 -27.26,-4.4 -3.97,4.5 -5.98,22.4 -5.98,53.7 -0.13,19.9 10.22,39.6 30.66,59.3 31.2,29.4 46.81,55.8 46.88,78.6 0,354.4 0,708.8 0,1063.2 -0.57,10.6 -13.32,14.4 -38.29,12.1 -17.18,-1.6 -27.25,0.4 -30.32,5.6 -3.13,5.2 -4.63,20.9 -4.63,47 0,22.2 1.68,36.3 5.06,42.3 3.39,5.9 13.26,13.3 29.89,21.9 181.36,95.1 362.66,205.2 543.96,318 13.7,8.4 23.5,12.4 29.9,11.7 6.2,-0.6 11,-8.4 14.4,-23.4 14.5,-64.2 29.1,-128.5 43.5,-192.8 2.3,-10 3.4,-16.8 3.5,-20.9 0,-15.3 -13.8,-31.5 -41.3,-48.7 -30.8,-19.3 -51.4,-28.6 -61.8,-27.8 -10.3,0.6 -20.3,12.2 -30,34.6 -17.5,40.3 -32.6,66.5 -45.4,78.6 -12.7,12 -26.9,13.3 -42.8,3.6 -19.2,-11.8 -38.3,-23.4 -57.5,-35"
         style="fill:#400611;fill-opacity:1;fill-rule:nonzero;stroke:none"
         id="path34" /><path
         d="m 11027,8468.1 c 0,-162.3 0,-324.6 0,-486.9 19.3,11.3 38.6,22.5 57.9,33.5 16,9.2 27.7,19.1 35,30.2 7.3,10.9 13.1,28.9 17.1,53.9 6.8,44.2 12.2,71.5 16.6,81.7 4.3,10.4 10.9,18.1 20,23.1 45,24.7 70.3,36.3 76.3,35.7 6,-0.5 9,-13.2 9,-38.2 0,-94.7 0,-189.4 0,-284 0,-17.7 -2.9,-30.7 -8.6,-39 -5.6,-8.5 -23.2,-20.4 -52.8,-36.6 -19.4,-10.4 -32.3,-14.2 -38.8,-10.7 -6.6,3.5 -13,20 -19.2,49.5 -6.2,26.5 -12.4,41.7 -18.3,45.1 -5.9,3.4 -15.3,1.6 -27.7,-5.5 -22.2,-12.7 -44.4,-25.5 -66.5,-38.4 0,-195.9 0,-391.7 0,-587.6 15,8.8 30.1,17.6 45.1,26.3 27.9,16 47,34.6 57.6,56.1 10.4,21.6 27.4,76.1 50.7,163.4 9.7,36.6 19.6,62.5 29.9,77.8 10.2,15 28.1,29.6 53.7,43.1 35.3,18.5 53,15.9 52.9,-6.7 0,-6.9 -1.1,-17.4 -3.4,-31.6 -10.6,-69.9 -21.2,-139.9 -31.7,-209.8 -5.6,-38.3 -10.2,-61.8 -14,-71 -3.7,-9.1 -15.2,-18.5 -34.5,-28.9 -189.5,-101.4 -379.2,-218.4 -568.8,-336.8 -14.2,-8.8 -23.3,-11.3 -27.2,-7.2 -4,4 -6,21.6 -6,52.9 0,19.9 10.3,40.8 30.7,62.7 31.3,32.5 46.9,60.2 46.9,83 0,354.4 0,708.8 0,1063.2 -0.6,10.5 -13.3,13.3 -38.4,8.5 -16.9,-3.2 -27.1,-2.4 -30.3,2.4 -3.1,4.9 -4.5,20.4 -4.6,46.6 0,22.1 1.6,36.4 5.1,42.8 3.4,6.4 13.4,14.7 29.8,25.1 181.4,113.2 362.7,224.9 544.1,323 13.5,7.3 23.5,10.3 29.8,9 6.2,-1.1 11.1,-9.4 14.5,-24.6 14.5,-65.7 29,-131.5 43.4,-197.4 2.3,-10.1 3.5,-17.2 3.5,-21.2 0,-15.4 -13.8,-30 -41.2,-44.5 -31,-16.3 -51.5,-23.9 -61.8,-22.3 -10.3,1.5 -20.3,13.7 -30,36.8 -17.5,41.5 -32.7,68.5 -45.5,81.3 -12.7,12.7 -26.9,14.6 -42.7,5.5 -19.2,-10.9 -38.4,-22.1 -57.6,-33.3"
         style="fill:#400611;fill-opacity:1;fill-rule:nonzero;stroke:none"
         id="path36" /><path
         d="m 11757.7,8821.7 c 0,-191.6 0,-383.2 0,-574.8 18.5,6 36.9,11.7 55.3,17 56.4,16.3 84.5,79 84.5,192.3 0,91.5 0,183 0,274.5 0,47.8 -8.9,79.3 -26.8,94.3 -17.9,14.9 -46,17.4 -84,5.8 -9.7,-3 -19.3,-6 -29,-9.1 z m 0,-673.6 c 0,-141 0,-282 0,-423 0.1,-19.9 1.3,-32.8 3.7,-38.8 2.6,-6.1 9.7,-11 21.4,-14.6 15,-5.1 22.6,-19.2 22.6,-41.8 0,-32.9 -2.9,-54.2 -8.9,-63.7 -6,-9.4 -16.9,-16.6 -32.8,-21.6 -120,-38.2 -240,-87.8 -360,-145.3 -20.4,-9.9 -30.5,-0.2 -30.6,29.4 0,28.4 0.8,47.3 2.6,56.3 1.6,9 7.4,17.8 17,25.8 31.3,27.5 46.9,59.2 46.9,95.6 0,333.1 0,666.1 0,999.2 0,37 -13.6,53.2 -40.8,48.1 -13.7,-2.1 -22.3,-1.7 -25.7,1 -3.4,2.9 -5.1,15.4 -5.1,37.3 0,44.1 11.9,72.1 35.8,83.5 157.2,75.4 314.4,137.2 471.6,177.4 93.8,24 177.4,2.4 251.1,-61.1 73.6,-63.8 110.3,-159.3 110.4,-277.7 0,-170.4 -86.1,-274.9 -258.3,-358.5 157.3,-5.4 236.2,-108.7 236.2,-272.2 0,-67.6 0,-135.2 0,-202.9 0,-17.1 6.4,-29.6 19.5,-37.9 15.3,-9.9 23.1,-25.8 23.1,-46.7 0,-33 -2,-52.6 -6,-58.8 -4,-6.4 -14.5,-9.5 -31.6,-9.9 -76.1,-2.2 -152.3,-10.8 -228.5,-24.9 -27.3,-5 -49.7,5.6 -67.3,32.6 -17.8,26.9 -26.5,62.9 -26.5,108.4 0,114.6 0,229.2 0,343.7 0,66.8 -33.8,93 -101.5,73 -12.7,-3.8 -25.5,-7.8 -38.3,-11.9"
         style="fill:#400611;fill-opacity:1;fill-rule:nonzero;stroke:none"
         id="path38" /><path
         d="m 9045.96,2142.8 c 0.28,0 0.57,-0.1 0.87,-0.1 -0.3,0 -0.58,0.1 -0.87,0.1 m 1.78,-0.3 c 45.94,-9.3 86.81,-13.5 118.85,-14.2 -32.02,0.7 -72.91,4.9 -118.85,14.2 m 119.39,-14.2 c 0.28,0 0.56,0 0.83,0 -0.27,0 -0.56,0 -0.83,0 m 1.25,0 c 0.51,0 1,-0.1 1.5,-0.1 -0.5,0 -0.99,0.1 -1.5,0.1 m 2.16,-0.1 c 0.21,0 0.43,0 0.64,0 -0.21,0 -0.42,0 -0.64,0 m 1.62,0 c 0.27,0 0.55,0 0.83,0 -0.28,0 -0.56,0 -0.83,0 m 1.81,0 c 0.19,0 0.37,0 0.54,0 -0.16,0 -0.36,0 -0.54,0"
         style="fill:#ffffff;fill-opacity:1;fill-rule:nonzero;stroke:none"
         id="path40" /><path
         d="m 10669.9,18049 h -615.1 c 0,0 -125.66,-1195.8 -229.83,-2285.4 H 10440 c 104.2,1089.6 229.9,2285.4 229.9,2285.4 M 8907.65,2438.1 c 35.89,-103.2 82.13,-202.6 133.74,-294.3 1.52,-0.3 3.05,-0.6 4.57,-1 0.29,0 0.57,-0.1 0.87,-0.1 0.3,-0.1 0.61,-0.2 0.91,-0.2 45.94,-9.3 86.83,-13.5 118.85,-14.2 0.18,0 0.36,0 0.54,0 0.27,0 0.56,0 0.83,0 0.15,0 0.28,0 0.42,0 0.51,0 1,-0.1 1.5,-0.1 0.23,0 0.44,0 0.66,0 0.22,0 0.43,0 0.64,0 0.33,0 0.66,0 0.98,0 0.27,0 0.55,0 0.83,0 0.32,0 0.66,0 0.98,0 0.18,0 0.38,0 0.54,0 0.45,0 0.9,0 1.35,0 h 489.54 c -25.93,45.1 -50.61,92.2 -73.43,140.8 h -262.82 c -90.44,0 -273.67,37.8 -421.5,169.1"
         style="fill:#cddde0;fill-opacity:1;fill-rule:nonzero;stroke:none"
         id="path42" /><path
         d="m 10311.4,14265.6 h -615.09 c -2.65,-43.5 -4.68,-82.1 -6.03,-115.2 0,-1046.6 -859.34,-1603.6 -859.34,-2314.2 v -553.7 h 615.1 v 553.7 c 0,710.6 859.26,1267.6 859.26,2314.2 1.4,33.1 3.4,71.7 6.1,115.2 M 9446.04,4061.5 h -615.1 V 2858 c 0,-141 29.36,-283.8 76.71,-419.9 147.83,-131.3 331.06,-169.1 421.5,-169.1 h 262.82 c -86.28,183.5 -145.93,388.1 -145.93,589 v 1203.5"
         style="fill:#f1b764;fill-opacity:1;fill-rule:nonzero;stroke:none"
         id="path44" /><path
         d="m 10440,15763.6 h -615.03 c -58.09,-607.6 -109.48,-1182.1 -128.66,-1498 h 615.09 c 19.1,315.9 70.5,890.4 128.6,1498"
         style="fill:#fbfbcb;fill-opacity:1;fill-rule:nonzero;stroke:none"
         id="path46" /><path
         d="m 9446.04,11282.5 h -615.1 v -1071.1 c 153.64,146.6 365.52,267.1 615.1,348.6 v 722.5 m -615.1,-6279.8 v -941.2 h 615.1 v 592.6 c -249.58,81.4 -461.46,202 -615.1,348.6"
         style="fill:#6f2c34;fill-opacity:1;fill-rule:nonzero;stroke:none"
         id="path48" /><path
         d="m 9446.04,10560 c -249.58,-81.5 -461.46,-202 -615.1,-348.6 V 9897 c 128.1,182.6 344.39,335.4 615.1,437.2 v 225.8 m -615.1,-5242.9 v -314.4 c 153.64,-146.6 365.52,-267.2 615.1,-348.6 v 225.8 c -270.71,101.8 -487,254.6 -615.1,437.2"
         style="fill:#dfa651;fill-opacity:1;fill-rule:nonzero;stroke:none"
         id="path50" /><path
         d="m 9446.04,10334.2 c -270.71,-101.8 -487,-254.6 -615.1,-437.2 V 5317.1 c 128.1,-182.6 344.39,-335.4 615.1,-437.2 v 248.9 c -279.9,163.2 -457.46,406.3 -457.46,677.9 0,0 31.64,-2.1 87.57,-2.1 80.44,0 211.05,4.4 369.89,25.6 v 504.7 c -15.44,-5.7 -31.34,-11 -47.72,-15.8 -138.99,-40.4 -277.99,-64.7 -416.94,-67.4 -0.27,0 -0.54,0 -0.79,0 -16.5,0 -24.83,8.8 -24.78,26.2 0,17 0,34.1 0,51.2 -0.05,14.2 7.57,24.6 23.04,31.7 32.28,16 48.61,39.6 48.61,69.1 0,343 0,686.1 0,1029.1 0,14.2 -2.32,23.8 -6.8,28.7 -4.63,4.9 -18.23,12.1 -40.95,22.5 -11.44,5 -18.08,10.6 -20.08,16.8 -1.99,6.3 -2.97,21.6 -2.97,46.1 0,21.5 2.93,36.1 8.92,43.5 5.94,7.4 16.32,11.3 31.19,11.7 149.74,4.6 299.45,34.1 449.27,81.5 v 503.6 c -269.06,-135.2 -457.46,-215.3 -457.46,-215.3 v 1409.3 c 0,271.5 177.56,514.7 457.46,677.9 v 248.9 m -23.15,-2732.5 c -9.84,0 -20.86,-1.8 -33.04,-5.3 -15.14,-4.2 -30.12,-8.4 -45.27,-12.3 0,-149.2 0,-298.5 0,-447.7 15.15,3.9 30.13,8 45.27,12.4 22.51,6.4 41.26,17.4 56.19,32.6 v 416.1 c -6.82,2.8 -14.54,4.2 -23.15,4.2 m 6.78,-543.4 c -10.88,0 -24.17,-2.3 -39.82,-6.8 -15.14,-4.3 -30.12,-8.4 -45.27,-12.3 0,-212.3 0,-424.6 0,-636.9 48.85,12.7 82.66,29.4 101.46,47.8 V 7056 c -4.65,1.6 -10.11,2.3 -16.37,2.3"
         style="fill:#ffffff;fill-opacity:1;fill-rule:nonzero;stroke:none"
         id="path52" /><path
         d="m 9446.04,10085.3 c -279.9,-163.2 -457.46,-406.4 -457.46,-677.9 V 7998.1 c 0,0 188.4,80.1 457.46,215.3 v 1871.9"
         style="fill:#dfa651;fill-opacity:1;fill-rule:nonzero;stroke:none"
         id="path54" /><path
         d="m 9446.04,5830.2 c -158.84,-21.2 -289.45,-25.6 -369.89,-25.6 -55.93,0 -87.57,2.1 -87.57,2.1 0,-271.6 177.56,-514.7 457.46,-677.9 v 701.4"
         style="fill:#dfa651;fill-opacity:1;fill-rule:nonzero;stroke:none"
         id="path56" /><path
         d="m 9446.04,7709.8 c -149.82,-47.4 -299.53,-76.9 -449.27,-81.5 -14.87,-0.4 -25.25,-4.3 -31.19,-11.7 -5.99,-7.4 -8.92,-22 -8.92,-43.5 0,-24.5 0.98,-39.8 2.97,-46.1 2,-6.2 8.64,-11.8 20.08,-16.8 22.72,-10.4 36.32,-17.6 40.95,-22.5 4.48,-4.9 6.8,-14.5 6.8,-28.7 0,-343 0,-686.1 0,-1029.1 0,-29.5 -16.33,-53.1 -48.61,-69.1 -15.47,-7.1 -23.09,-17.5 -23.04,-31.7 0,-17.1 0,-34.2 0,-51.2 -0.05,-17.4 8.28,-26.2 24.78,-26.2 0.25,0 0.52,0 0.79,0 138.95,2.7 277.95,27 416.94,67.4 16.38,4.8 32.28,10.1 47.72,15.8 v 115.2 c -18.8,-18.4 -52.61,-35.1 -101.46,-47.8 0,212.3 0,424.6 0,636.9 15.15,3.9 30.13,8 45.27,12.3 15.65,4.5 28.94,6.8 39.82,6.8 6.26,0 11.72,-0.7 16.37,-2.3 v 125.4 c -14.93,-15.2 -33.68,-26.2 -56.19,-32.6 -15.14,-4.4 -30.12,-8.5 -45.27,-12.4 0,149.2 0,298.5 0,447.7 15.15,3.9 30.13,8.1 45.27,12.3 12.18,3.5 23.2,5.3 33.04,5.3 8.61,0 16.33,-1.4 23.15,-4.2 v 112.3"
         style="fill:#6f2c34;fill-opacity:1;fill-rule:nonzero;stroke:none"
         id="path58" /><path
         d="m 10963.2,18049 h -171.7 c 0,0 -121.3,-1195.8 -222,-2285.4 h 171.7 c 100.8,1089.6 222,2285.4 222,2285.4 M 9987.61,2269 h -171.7 c 20.2,-43 41.87,-84.8 64.59,-125.2 53.08,-11.2 99.86,-15.6 134.4,-15.6 h 171.7 c -34.6,0 -81.3,4.4 -134.4,15.6 -22.7,40.4 -44.4,82.2 -64.59,125.2"
         style="fill:#cddde0;fill-opacity:1;fill-rule:nonzero;stroke:none"
         id="path60" /><path
         d="m 10616.4,14265.6 h -171.7 c -2.6,-43.5 -4.6,-82.1 -5.9,-115.2 0,-1046.6 -768.71,-1603.6 -768.71,-2314.2 v -553.7 h 171.64 v 553.7 c 0,710.6 768.77,1267.6 768.77,2314.2 1.3,33.1 3.3,71.7 5.9,115.2 M 9841.73,4061.5 H 9670.09 V 2858 c 0,-200.8 59.55,-405.4 145.82,-589 h 171.7 c -86.26,183.6 -145.88,388.2 -145.88,589 v 1203.5"
         style="fill:#f1b764;fill-opacity:1;fill-rule:nonzero;stroke:none"
         id="path62" /><path
         d="m 10741.2,15763.6 h -171.7 c -56.2,-607.6 -106,-1182.1 -124.8,-1498 h 171.7 c 18.9,315.9 68.7,890.4 124.8,1498"
         style="fill:#fbfbcb;fill-opacity:1;fill-rule:nonzero;stroke:none"
         id="path64" /><path
         d="m 9841.73,11282.5 h -171.64 v -662.2 c 55.89,12 113.21,22.2 171.64,30.4 v 631.8 M 9670.09,4593.8 v -532.3 h 171.64 v 501.8 c -58.43,8.3 -115.75,18.5 -171.64,30.5"
         style="fill:#6f2c34;fill-opacity:1;fill-rule:nonzero;stroke:none"
         id="path66" /><path
         d="m 9841.73,10650.7 c -58.43,-8.2 -115.75,-18.4 -171.64,-30.4 v -216.9 c 55.69,13.8 112.97,25.5 171.64,35.2 v 212.1 m -171.64,-5840 v -216.9 c 55.89,-12 113.21,-22.2 171.64,-30.5 v 212.2 c -58.67,9.7 -115.95,21.4 -171.64,35.2"
         style="fill:#dfa651;fill-opacity:1;fill-rule:nonzero;stroke:none"
         id="path68" /><path
         d="m 9841.73,10438.6 c -58.67,-9.7 -115.95,-21.4 -171.64,-35.2 v -213 c 54.95,20.4 112.28,38.1 171.64,53 v 195.2 m 0,-2015.2 c -58.53,-32.8 -115.99,-64.2 -171.64,-93.9 v -583.2 c 19.53,-2.8 37.23,-8.2 53.12,-16.3 60.27,-30.3 90.38,-88.3 90.34,-177.1 0,-74 -23.69,-147.6 -71.16,-219.3 -21.86,-32.9 -45.96,-63.1 -72.3,-90.3 v -85.9 c 50.47,-5.6 88.07,-18.5 112.73,-40.9 39.29,-35.1 58.83,-99.4 58.91,-193.7 0,-143.7 -36.11,-269.3 -108.29,-372.5 -18.53,-26.3 -39.65,-51.4 -63.35,-75 v -606.1 c 55.65,11.9 113.07,26 171.64,42.7 V 8423.4 M 9670.09,5023.7 v -213 c 55.69,-13.8 112.97,-25.5 171.64,-35.2 v 195.2 c -59.36,14.9 -116.69,32.6 -171.64,53"
         style="fill:#ffffff;fill-opacity:1;fill-rule:nonzero;stroke:none"
         id="path70" /><path
         d="m 9841.73,10243.4 c -59.36,-14.9 -116.69,-32.6 -171.64,-53 V 8329.5 c 55.65,29.7 113.11,61.1 171.64,93.9 v 1820"
         style="fill:#dfa651;fill-opacity:1;fill-rule:nonzero;stroke:none"
         id="path72" /><path
         d="m 9841.73,5911.9 c -58.57,-16.7 -115.99,-30.8 -171.64,-42.7 v -845.5 c 54.95,-20.4 112.28,-38.1 171.64,-53 v 941.2"
         style="fill:#dfa651;fill-opacity:1;fill-rule:nonzero;stroke:none"
         id="path74" /><path
         d="m 9670.09,7746.3 v -503 c 26.34,27.2 50.44,57.4 72.3,90.3 47.47,71.7 71.16,145.3 71.16,219.3 0.04,88.8 -30.07,146.8 -90.34,177.1 -15.89,8.1 -33.59,13.5 -53.12,16.3 m 0,-588.9 v -682.1 c 23.7,23.6 44.82,48.7 63.35,75 72.18,103.2 108.29,228.8 108.29,372.5 -0.08,94.3 -19.62,158.6 -58.91,193.7 -24.66,22.4 -62.26,35.3 -112.73,40.9"
         style="fill:#6f2c34;fill-opacity:1;fill-rule:nonzero;stroke:none"
         id="path76" /><path
         d="m 10469.5,18943.6 h -451 c 0,0 -179.74,-397 -122.66,-619.6 57.08,-222.6 158.96,-275 158.96,-275 h 615.1 c 0,0 -100.5,55.3 -203.2,243.6 -137.9,252.7 2.8,651 2.8,651"
         style="fill:#c3d2d5;fill-opacity:1;fill-rule:nonzero;stroke:none"
         id="path78" /><path
         d="m 10787.3,18943.6 h -159.8 c 0,0 -42.8,-397 14.3,-619.6 57,-222.6 158.9,-275 158.9,-275 h 159.9 c 0,0 -101.9,52.4 -159,275 -57.1,222.6 -14.3,619.6 -14.3,619.6"
         style="fill:#c3d2d5;fill-opacity:1;fill-rule:nonzero;stroke:none"
         id="path80" /><path
         d="m 11660.6,3703.4 c -74.7,0 -135.2,-60.5 -135.2,-135.3 0,-74.7 60.5,-135.3 135.2,-135.3 74.7,0 135.3,60.6 135.3,135.3 0,74.8 -60.6,135.3 -135.3,135.3"
         style="fill:#f1b764;fill-opacity:1;fill-rule:nonzero;stroke:none"
         id="path82" /><path
         d="m 11795.9,3253.8 c -67.9,0 -123,-55 -123,-123 0,-67.9 55.1,-123 123,-123 68,0 123,55.1 123,123 0,68 -55,123 -123,123"
         style="fill:#f1b764;fill-opacity:1;fill-rule:nonzero;stroke:none"
         id="path84" /><path
         d="m 12110.5,2855.1 c -39.8,0 -72.1,-32.3 -72.1,-72.2 0,-39.8 32.3,-72.1 72.1,-72.1 39.9,0 72.1,32.3 72.1,72.1 0,39.9 -32.2,72.2 -72.1,72.2"
         style="fill:#f1b764;fill-opacity:1;fill-rule:nonzero;stroke:none"
         id="path86" /><path
         d="m 12182.6,3901.1 c -109.1,0 -197.6,-88.5 -197.6,-197.7 0,-109.2 88.5,-197.7 197.6,-197.7 109.2,0 197.7,88.5 197.7,197.7 0,109.2 -88.5,197.7 -197.7,197.7"
         style="fill:#f1b764;fill-opacity:1;fill-rule:nonzero;stroke:none"
         id="path88" /><path
         d="m 11275.9,13373.7 c -35.1,-0.1 -68.9,-19.3 -86.1,-52.6 -24.3,-47.5 -5.5,-105.8 42,-130.1 14.1,-7.2 29.1,-10.6 44,-10.6 35.1,0 69,19.2 86.1,52.6 24.3,47.4 5.5,105.7 -42,130 -14.1,7.2 -29.1,10.7 -44,10.7"
         style="fill:#f1b764;fill-opacity:1;fill-rule:nonzero;stroke:none"
         id="path90" /><path
         d="m 11354.6,12893.9 c -50.4,0 -99.1,-27.6 -123.7,-75.7 -35,-68.3 -8,-152 60.3,-186.9 20.3,-10.4 41.9,-15.3 63.2,-15.3 50.5,0 99.2,27.6 123.8,75.6 34.9,68.3 8,152 -60.3,187 -20.3,10.3 -41.9,15.3 -63.3,15.3"
         style="fill:#f1b764;fill-opacity:1;fill-rule:nonzero;stroke:none"
         id="path92" /><path
         d="m 11802.8,13103.8 c -35.2,0 -69,-19.2 -86.2,-52.6 -24.3,-47.4 -5.5,-105.7 42,-130 14.1,-7.2 29.2,-10.6 44,-10.6 35.1,0 69,19.1 86.1,52.5 24.3,47.5 5.5,105.8 -42,130.1 -14.1,7.2 -29.1,10.6 -43.9,10.6"
         style="fill:#f1b764;fill-opacity:1;fill-rule:nonzero;stroke:none"
         id="path94" /><path
         d="m 11596.4,12460.1 c -43.9,0 -86.3,-24 -107.6,-65.7 -30.5,-59.5 -6.9,-132.2 52.4,-162.6 17.7,-9.1 36.5,-13.3 55,-13.3 43.9,0 86.2,24 107.6,65.7 30.5,59.4 7,132.2 -52.4,162.6 -17.7,9 -36.5,13.3 -55,13.3"
         style="fill:#f1b764;fill-opacity:1;fill-rule:nonzero;stroke:none"
         id="path96" /><path
         d="m 11274.1,12071.7 c -35.1,0 -69,-19.2 -86.1,-52.6 -24.3,-47.5 -5.5,-105.7 41.9,-130.1 14.1,-7.2 29.2,-10.6 44,-10.6 35.2,0 69,19.2 86.2,52.6 24.3,47.5 5.5,105.8 -42,130.1 -14.1,7.2 -29.2,10.6 -44,10.6"
         style="fill:#f1b764;fill-opacity:1;fill-rule:nonzero;stroke:none"
         id="path98" /><path
         d="m 11749.1,11952.7 c -42.3,0 -83.1,-23.1 -103.7,-63.3 -29.2,-57.2 -6.6,-127.3 50.5,-156.6 17,-8.7 35.1,-12.8 53,-12.8 42.2,0 83,23.1 103.6,63.3 29.3,57.2 6.7,127.3 -50.4,156.6 -17.1,8.7 -35.2,12.8 -53,12.8"
         style="fill:#f1b764;fill-opacity:1;fill-rule:nonzero;stroke:none"
         id="path100" /><path
         d="m 11434.8,11681.4 c -32.9,0 -64.7,-18 -80.7,-49.3 -22.8,-44.6 -5.3,-99.1 39.3,-122 13.2,-6.7 27.3,-9.9 41.2,-9.9 32.9,0 64.7,18 80.7,49.3 22.8,44.5 5.3,99.1 -39.3,121.9 -13.2,6.8 -27.3,10 -41.2,10"
         style="fill:#f1b764;fill-opacity:1;fill-rule:nonzero;stroke:none"
         id="path102" /><path
         d="m 12021.1,12244.8 c -37.4,0 -73.3,-20.4 -91.5,-55.8 -25.9,-50.5 -5.9,-112.4 44.5,-138.2 15,-7.7 31,-11.4 46.8,-11.4 37.3,0 73.3,20.5 91.5,56 25.8,50.4 5.9,112.2 -44.6,138.1 -15,7.7 -31,11.3 -46.7,11.3"
         style="fill:#f1b764;fill-opacity:1;fill-rule:nonzero;stroke:none"
         id="path104" /><path
         d="m 10623.3,3125.1 c -73.6,0 -133.4,-59.7 -133.4,-133.4 0,-73.8 59.8,-133.5 133.4,-133.5 73.8,0 133.5,59.7 133.5,133.5 0,73.7 -59.7,133.4 -133.5,133.4"
         style="fill:#f1b764;fill-opacity:1;fill-rule:nonzero;stroke:none"
         id="path106" /><path
         d="m 10342.9,2777.2 c -53.1,0 -96.1,-42.9 -96.1,-96 0,-53.2 43,-96.2 96.1,-96.2 53.1,0 96.1,43 96.1,96.2 0,53.1 -43,96 -96.1,96"
         style="fill:#f1b764;fill-opacity:1;fill-rule:nonzero;stroke:none"
         id="path108" /><path
         d="m 11465.7,14063.7 c -73.7,0 -133.4,-59.7 -133.4,-133.5 0,-73.7 59.7,-133.4 133.4,-133.4 73.7,0 133.4,59.7 133.4,133.4 0,73.8 -59.7,133.5 -133.4,133.5"
         style="fill:#f1b764;fill-opacity:1;fill-rule:nonzero;stroke:none"
         id="path110" /><path
         d="m 11185.2,13715.8 c -53.1,0 -96.1,-43 -96.1,-96.1 0,-53.1 43,-96.2 96.1,-96.2 53.1,0 96.1,43.1 96.1,96.2 0,53.1 -43,96.1 -96.1,96.1"
         style="fill:#f1b764;fill-opacity:1;fill-rule:nonzero;stroke:none"
         id="path112" /><path
         d="m 11190.2,15511.4 c -26.2,-21.7 -65.1,-18.2 -86.9,8 -21.8,26.2 -18.2,65.1 8,86.9 26.2,21.8 65.1,18.2 86.9,-8 21.8,-26.2 18.2,-65.1 -8,-86.9"
         style="fill:#f4c37a;fill-opacity:1;fill-rule:nonzero;stroke:none"
         id="path114" /><path
         d="m 11122.6,15164.5 c -37.7,-31.3 -93.6,-26.1 -124.9,11.5 -31.3,37.7 -26.1,93.6 11.5,124.9 37.7,31.3 93.6,26.2 124.9,-11.5 31.3,-37.7 26.2,-93.6 -11.5,-124.9"
         style="fill:#f4c37a;fill-opacity:1;fill-rule:nonzero;stroke:none"
         id="path116" /><path
         d="m 11431.7,15220.9 c -26.2,-21.8 -65.2,-18.2 -86.9,8 -21.8,26.2 -18.2,65.1 8,86.9 26.2,21.7 65.1,18.1 86.9,-8 21.8,-26.3 18.2,-65.2 -8,-86.9"
         style="fill:#f4c37a;fill-opacity:1;fill-rule:nonzero;stroke:none"
         id="path118" /><path
         d="m 11152.8,14868.8 c -32.8,-27.2 -81.3,-22.7 -108.6,10 -27.2,32.8 -22.7,81.4 10,108.6 32.8,27.2 81.4,22.7 108.6,-10 27.3,-32.8 22.7,-81.4 -10,-108.6"
         style="fill:#f4c37a;fill-opacity:1;fill-rule:nonzero;stroke:none"
         id="path120" /><path
         d="m 11571.8,14538.2 c -15.7,18.9 -13.1,47.1 5.8,62.8 19,15.8 47.1,13.2 62.8,-5.8 15.8,-18.9 13.2,-47 -5.8,-62.8 -18.9,-15.7 -47.1,-13.1 -62.8,5.8"
         style="fill:#f4c37a;fill-opacity:1;fill-rule:nonzero;stroke:none"
         id="path122" /><path
         d="m 11321,14587.1 c -22.7,27.2 -18.9,67.6 8.3,90.3 27.2,22.6 67.7,18.8 90.3,-8.4 22.6,-27.2 18.9,-67.6 -8.3,-90.3 -27.3,-22.6 -67.7,-18.9 -90.3,8.4"
         style="fill:#f4c37a;fill-opacity:1;fill-rule:nonzero;stroke:none"
         id="path124" /><path
         d="m 11361.7,14363.5 c -15.7,19 -13.1,47.2 5.8,62.9 18.9,15.7 47.1,13.1 62.8,-5.8 15.8,-18.9 13.2,-47.1 -5.8,-62.8 -18.9,-15.7 -47.1,-13.2 -62.8,5.7"
         style="fill:#f4c37a;fill-opacity:1;fill-rule:nonzero;stroke:none"
         id="path126" /><path
         d="m 11107.2,14565.2 c -19.8,23.7 -16.5,58.8 7.2,78.5 23.6,19.7 58.8,16.5 78.5,-7.2 19.7,-23.7 16.4,-58.8 -7.3,-78.6 -23.6,-19.6 -58.8,-16.4 -78.4,7.3"
         style="fill:#f4c37a;fill-opacity:1;fill-rule:nonzero;stroke:none"
         id="path128" /><path
         d="m 8988.58,2436 c 0,0 77.98,22.4 194.94,34.9 58.49,6.7 126.69,11.9 199.8,12.1 73.11,-1 151.06,-8.8 229.03,-12.1 155.94,-7.8 311.9,-14.1 428.85,-22.1 117,-7.7 194.9,-12.8 194.9,-12.8 l 4.7,-5.4 -4.7,-4.6 c 0,0 -77.9,-5.1 -194.9,-12.8 -116.95,-8.1 -272.91,-14.3 -428.85,-22.1 -77.97,-3.3 -155.92,-11.1 -229.03,-12.1 -73.11,0.2 -141.31,5.3 -199.8,12.1 -116.96,12.5 -194.94,34.9 -194.94,34.9 l -3.55,6.4 3.55,3.6"
         style="fill:#965120;fill-opacity:1;fill-rule:nonzero;stroke:none"
         id="path130" /><path
         d="m 8830.95,2686.1 c 0,0 77.98,22.4 194.94,34.9 58.46,6.8 126.69,11.9 199.8,12.1 73.08,-0.9 151.06,-8.7 229.04,-12.1 155.95,-7.7 311.87,-14 428.83,-22.1 116.94,-7.7 194.94,-12.8 194.94,-12.8 l 4.6,-5.3 -4.6,-4.7 c 0,0 -78,-5.1 -194.94,-12.8 -116.96,-8 -272.88,-14.3 -428.83,-22.1 -77.98,-3.3 -155.96,-11.1 -229.04,-12.1 -73.11,0.2 -141.34,5.4 -199.8,12.1 -116.96,12.5 -194.94,35 -194.94,35 l -3.55,6.4 3.55,3.5"
         style="fill:#965120;fill-opacity:1;fill-rule:nonzero;stroke:none"
         id="path132" /><path
         d="m 8702.24,2938.3 c 0,0 77.97,22.4 194.93,34.9 58.48,6.8 126.69,11.9 199.8,12.1 73.1,-1 151.08,-8.8 229.04,-12.1 155.95,-7.8 311.9,-14 428.85,-22.1 116.96,-7.7 194.93,-12.8 194.93,-12.8 l 4.66,-5.3 -4.66,-4.7 c 0,0 -77.97,-5.1 -194.93,-12.8 -116.95,-8 -272.9,-14.3 -428.85,-22.1 -77.96,-3.3 -155.94,-11.1 -229.04,-12.1 -73.11,0.2 -141.32,5.4 -199.8,12.1 -116.96,12.5 -194.93,34.9 -194.93,34.9 l -3.56,6.4 3.56,3.6"
         style="fill:#965120;fill-opacity:1;fill-rule:nonzero;stroke:none"
         id="path134" /><path
         d="m 8702.24,3258.8 c 0,0 77.97,22.4 194.93,34.9 58.48,6.8 126.69,11.9 199.8,12.1 73.1,-0.9 151.08,-8.7 229.04,-12.1 155.95,-7.7 311.9,-14 428.85,-22.1 116.96,-7.7 194.93,-12.8 194.93,-12.8 l 4.66,-5.3 -4.66,-4.7 c 0,0 -77.97,-5.1 -194.93,-12.7 -116.95,-8.1 -272.9,-14.4 -428.85,-22.2 -77.96,-3.3 -155.94,-11.1 -229.04,-12.1 -73.11,0.2 -141.32,5.4 -199.8,12.1 -116.96,12.6 -194.93,35 -194.93,34.9 l -3.56,6.5 3.56,3.5"
         style="fill:#965120;fill-opacity:1;fill-rule:nonzero;stroke:none"
         id="path136" /><path
         d="m 8702.24,3579.4 c 0,0 77.97,22.4 194.93,34.9 58.48,6.7 126.69,11.9 199.8,12 73.1,-0.9 151.08,-8.7 229.04,-12 155.95,-7.8 311.9,-14.1 428.85,-22.2 116.96,-7.6 194.93,-12.7 194.93,-12.7 l 4.66,-5.3 -4.66,-4.7 c 0,0 -77.97,-5.1 -194.93,-12.8 -116.95,-8.1 -272.9,-14.3 -428.85,-22.1 -77.96,-3.3 -155.94,-11.1 -229.04,-12.1 -73.11,0.2 -141.32,5.3 -199.8,12.1 -116.96,12.5 -194.93,34.9 -194.93,34.9 l -3.56,6.4 3.56,3.6"
         style="fill:#965120;fill-opacity:1;fill-rule:nonzero;stroke:none"
         id="path138" /><path
         d="m 8702.24,3899.9 c 0,0 77.97,22.4 194.93,35 58.48,6.7 126.69,11.8 199.8,12 73.1,-0.9 151.08,-8.7 229.04,-12 155.95,-7.8 311.9,-14.1 428.85,-22.2 116.96,-7.6 194.93,-12.8 194.93,-12.8 l 4.66,-5.3 -4.66,-4.6 c 0,0 -77.97,-5.2 -194.93,-12.8 -116.95,-8.1 -272.9,-14.4 -428.85,-22.2 -77.96,-3.3 -155.94,-11.1 -229.04,-12 -73.11,0.2 -141.32,5.3 -199.8,12 -116.96,12.6 -194.93,35 -194.93,35 l -3.56,6.4 3.56,3.5"
         style="fill:#965120;fill-opacity:1;fill-rule:nonzero;stroke:none"
         id="path140" /><path
         d="m 8502.89,4204.4 c 0,0 77.98,22.4 194.93,34.9 58.5,6.7 126.7,11.8 199.81,12 73.1,-0.9 151.05,-8.7 229.03,-12 155.94,-7.8 311.88,-14.1 428.84,-22.2 116.95,-7.6 194.93,-12.7 194.93,-12.7 l 4.66,-5.3 -4.66,-4.7 c 0,0 -77.98,-5.1 -194.93,-12.8 -116.96,-8.1 -272.9,-14.4 -428.84,-22.1 -77.98,-3.4 -155.93,-11.2 -229.03,-12.1 -73.11,0.2 -141.31,5.3 -199.81,12.1 -116.95,12.5 -194.93,34.9 -194.93,34.9 l -3.55,6.4 3.55,3.6"
         style="fill:#2b0308;fill-opacity:1;fill-rule:nonzero;stroke:none"
         id="path142" /><path
         d="m 8702.24,11445.6 c 0,0 77.97,22.3 194.93,34.9 58.48,6.7 126.69,11.8 199.8,12 73.1,-0.9 151.08,-8.7 229.04,-12 155.95,-7.8 311.9,-14.1 428.85,-22.2 116.96,-7.6 194.93,-12.7 194.93,-12.7 l 4.66,-5.4 -4.66,-4.6 c 0,0 -77.97,-5.2 -194.93,-12.8 -116.95,-8.1 -272.9,-14.4 -428.85,-22.1 -77.96,-3.4 -155.94,-11.2 -229.04,-12.1 -73.11,0.2 -141.32,5.3 -199.8,12.1 -116.96,12.5 -194.93,34.9 -194.93,34.9 l -3.56,6.4 3.56,3.6"
         style="fill:#965120;fill-opacity:1;fill-rule:nonzero;stroke:none"
         id="path144" /><path
         d="m 8702.24,11746 c 0,0 77.97,22.4 194.93,34.9 58.48,6.8 126.69,11.9 199.8,12.1 73.1,-0.9 151.08,-8.7 229.04,-12.1 155.95,-7.7 311.9,-14 428.85,-22.1 116.96,-7.6 194.93,-12.8 194.93,-12.8 l 4.66,-5.3 -4.66,-4.7 c 0,0 -77.97,-5.1 -194.93,-12.7 -116.95,-8.1 -272.9,-14.4 -428.85,-22.2 -77.96,-3.3 -155.94,-11.1 -229.04,-12 -73.11,0.2 -141.32,5.3 -199.8,12 -116.96,12.6 -194.93,34.9 -194.93,34.9 l -3.56,6.5 3.56,3.5"
         style="fill:#965120;fill-opacity:1;fill-rule:nonzero;stroke:none"
         id="path146" /><path
         d="m 8776.65,12076.7 c 0,-0.1 77.98,22.4 194.93,34.9 58.47,6.7 126.7,11.9 199.79,12.1 73.09,-1 151.07,-8.8 229.03,-12.1 155.96,-7.8 311.89,-14.1 428.84,-22.2 116.95,-7.6 194.96,-12.7 194.96,-12.7 l 4.6,-5.3 -4.6,-4.7 c 0,0 -78.01,-5.1 -194.96,-12.8 -116.95,-8.1 -272.88,-14.3 -428.84,-22.1 -77.96,-3.4 -155.94,-11.2 -229.03,-12.1 -73.09,0.2 -141.32,5.3 -199.79,12.1 -116.95,12.5 -194.93,34.9 -194.93,34.9 l -3.55,6.4 3.55,3.6"
         style="fill:#965120;fill-opacity:1;fill-rule:nonzero;stroke:none"
         id="path148" /><path
         d="m 8915.12,12382.9 c 0,0 77.98,22.4 194.93,34.9 58.49,6.8 126.7,11.9 199.8,12.1 73.11,-0.9 151.09,-8.7 229.07,-12.1 155.92,-7.7 311.87,-14 428.83,-22.1 116.95,-7.7 194.95,-12.8 194.95,-12.8 l 4.6,-5.3 -4.6,-4.7 c 0,0 -78,-5.1 -194.95,-12.7 -116.96,-8.1 -272.91,-14.4 -428.83,-22.2 -77.98,-3.3 -155.96,-11.1 -229.07,-12 -73.1,0.2 -141.31,5.3 -199.8,12 -116.95,12.5 -194.93,34.9 -194.93,34.9 l -3.56,6.5 3.56,3.5"
         style="fill:#965120;fill-opacity:1;fill-rule:nonzero;stroke:none"
         id="path150" /><path
         d="m 9046.3,12687.3 c 0,0 77.98,22.4 194.93,34.9 58.47,6.8 126.7,11.9 199.81,12.1 73.07,-0.9 151.05,-8.7 229.03,-12.1 155.96,-7.8 311.88,-14 428.83,-22.1 117,-7.7 194.9,-12.8 194.9,-12.8 l 4.7,-5.3 -4.7,-4.7 c 0,0 -77.9,-5.1 -194.9,-12.7 -116.95,-8.1 -272.87,-14.4 -428.83,-22.2 -77.98,-3.3 -155.96,-11.1 -229.03,-12 -73.11,0.2 -141.34,5.3 -199.81,12 -116.95,12.5 -194.93,34.9 -194.93,34.9 l -3.56,6.5 3.56,3.5"
         style="fill:#965120;fill-opacity:1;fill-rule:nonzero;stroke:none"
         id="path152" /><path
         d="m 9216.91,13012.2 c 0,-0.1 77.98,22.3 194.94,34.9 58.49,6.7 126.69,11.9 199.8,12.1 73.11,-1 151.08,-8.8 229.03,-12.1 155.96,-7.8 311.92,-14.1 428.92,-22.2 116.9,-7.6 194.9,-12.7 194.9,-12.7 l 4.6,-5.3 -4.6,-4.7 c 0,0 -78,-5.1 -194.9,-12.8 -117,-8.1 -272.96,-14.4 -428.92,-22.1 -77.95,-3.4 -155.92,-11.2 -229.03,-12.1 -73.11,0.2 -141.31,5.3 -199.8,12.1 -116.96,12.5 -194.94,34.9 -194.94,34.9 l -3.55,6.4 3.55,3.6"
         style="fill:#965120;fill-opacity:1;fill-rule:nonzero;stroke:none"
         id="path154" /><path
         d="m 9400.42,13341.8 c 0,0 77.98,22.4 194.93,34.9 58.47,6.8 126.7,11.9 199.79,12.1 73.09,-0.9 151.07,-8.7 229.06,-12.1 155.9,-7.7 311.9,-14 428.8,-22.1 117,-7.7 194.9,-12.8 194.9,-12.8 l 4.7,-5.3 -4.7,-4.7 c 0,0 -77.9,-5.1 -194.9,-12.7 -116.9,-8.1 -272.9,-14.4 -428.8,-22.2 -77.99,-3.3 -155.97,-11.1 -229.06,-12 -73.09,0.2 -141.32,5.3 -199.79,12 -116.95,12.5 -194.93,34.9 -194.93,34.9 l -3.55,6.5 3.55,3.5"
         style="fill:#965120;fill-opacity:1;fill-rule:nonzero;stroke:none"
         id="path156" /><path
         d="m 9538.92,13676.7 c 0,-0.1 77.97,22.4 194.92,34.9 58.46,6.7 126.71,11.9 199.8,12.1 73.06,-1 151.06,-8.8 229.06,-12.1 155.9,-7.8 311.9,-14.1 428.8,-22.2 117,-7.6 194.9,-12.7 194.9,-12.7 l 4.7,-5.3 -4.7,-4.7 c 0,0 -77.9,-5.1 -194.9,-12.8 -116.9,-8.1 -272.9,-14.4 -428.8,-22.1 -78,-3.4 -156,-11.2 -229.06,-12.1 -73.09,0.2 -141.34,5.3 -199.8,12.1 -116.95,12.5 -194.92,34.9 -194.92,34.9 l -3.57,6.4 3.57,3.6"
         style="fill:#965120;fill-opacity:1;fill-rule:nonzero;stroke:none"
         id="path158" /><path
         d="m 9584.59,14026.8 c 0,0 77.98,22.4 194.93,34.9 58.47,6.7 126.7,11.9 199.78,12.1 73.1,-1 151.1,-8.8 229,-12.1 156,-7.8 311.9,-14.1 428.9,-22.2 116.9,-7.6 194.9,-12.7 194.9,-12.7 l 4.7,-5.3 -4.7,-4.7 c 0,0 -78,-5.1 -194.9,-12.8 -117,-8.1 -272.9,-14.4 -428.9,-22.1 -77.9,-3.4 -155.9,-11.2 -229,-12.1 -73.08,0.2 -141.31,5.3 -199.78,12.1 -116.95,12.5 -194.93,34.9 -194.93,34.9 l -3.56,6.4 3.56,3.6"
         style="fill:#965120;fill-opacity:1;fill-rule:nonzero;stroke:none"
         id="path160" /><path
         d="m 9584.59,14441.7 c 0,0 54.46,22.4 136.17,34.9 40.85,6.7 88.5,11.9 139.58,12.1 51.07,-1 105.54,-8.8 159.96,-12.1 109,-7.8 217.9,-14.1 299.6,-22.2 81.7,-6.8 136.2,-12.7 136.2,-12.7 l 4.4,-5.6 -4.4,-4.4 c 0,0 -54.5,-6 -136.2,-12.8 -81.7,-8.1 -190.6,-14.3 -299.6,-22.1 -54.42,-3.4 -108.89,-11.2 -159.96,-12.1 -51.08,0.2 -98.73,5.3 -139.58,12.1 -81.71,12.5 -136.17,34.9 -136.17,34.9 l -2.95,7 2.95,3"
         style="fill:#f4c37a;fill-opacity:1;fill-rule:nonzero;stroke:none"
         id="path162" /><path
         d="m 9630.23,14749.8 c 0,0 54.48,22.3 136.18,34.9 40.86,6.7 88.5,11.8 139.59,12 51.05,-0.9 105.5,-8.7 160,-12 108.9,-7.8 217.9,-14.1 299.6,-22.2 81.7,-6.8 136.2,-12.7 136.2,-12.7 l 4.4,-5.6 -4.4,-4.4 c 0,0 -54.5,-6 -136.2,-12.8 -81.7,-8.1 -190.7,-14.4 -299.6,-22.1 -54.5,-3.4 -108.95,-11.2 -160,-12.1 -51.09,0.2 -98.73,5.3 -139.59,12.1 -81.7,12.5 -136.18,34.9 -136.18,34.9 l -2.94,7 2.94,3"
         style="fill:#f4c37a;fill-opacity:1;fill-rule:nonzero;stroke:none"
         id="path164" /><path
         d="m 9670.07,15084.6 c 0,0 54.47,22.4 136.17,34.9 40.85,6.8 88.53,11.9 139.58,12.1 51.06,-0.9 105.58,-8.7 159.98,-12.1 109,-7.7 217.9,-14 299.6,-22.1 81.7,-6.8 136.2,-12.8 136.2,-12.8 l 4.4,-5.5 -4.4,-4.5 c 0,0 -54.5,-5.9 -136.2,-12.7 -81.7,-8.1 -190.6,-14.4 -299.6,-22.2 -54.4,-3.3 -108.92,-11.1 -159.98,-12 -51.05,0.2 -98.73,5.3 -139.58,12 -81.7,12.5 -136.17,34.9 -136.17,34.9 l -2.95,7.1 2.95,2.9"
         style="fill:#f4c37a;fill-opacity:1;fill-rule:nonzero;stroke:none"
         id="path166" /><path
         d="m 9726.92,15434.7 c 0,0 54.48,22.4 136.18,34.9 40.86,6.8 88.52,11.9 139.6,12.1 51,-1 105.5,-8.8 160,-12.1 108.9,-7.8 217.9,-14 299.6,-22.1 81.7,-6.9 136.1,-12.8 136.1,-12.8 l 4.5,-5.5 -4.5,-4.5 c 0,0 -54.4,-5.9 -136.1,-12.8 -81.7,-8 -190.7,-14.3 -299.6,-22.1 -54.5,-3.3 -109,-11.1 -160,-12.1 -51.08,0.2 -98.74,5.4 -139.6,12.1 -81.7,12.5 -136.18,34.9 -136.18,34.9 l -2.95,7.1 2.95,2.9"
         style="fill:#f4c37a;fill-opacity:1;fill-rule:nonzero;stroke:none"
         id="path168" /><path
         d="m 9726.92,15929.4 c 0,0 54.48,22.4 136.18,34.9 40.86,6.7 88.52,11.9 139.6,12.1 51,-1 105.5,-8.8 160,-12.1 108.9,-7.8 217.9,-14.1 299.6,-22.1 81.7,-6.9 136.1,-12.8 136.1,-12.8 l 4.5,-5.5 -4.5,-4.5 c 0,0 -54.4,-6 -136.1,-12.8 -81.7,-8.1 -190.7,-14.3 -299.6,-22.1 -54.5,-3.4 -109,-11.1 -160,-12.1 -51.08,0.2 -98.74,5.3 -139.6,12.1 -81.7,12.5 -136.18,34.9 -136.18,34.9 l -2.95,7 2.95,3"
         style="fill:#687477;fill-opacity:1;fill-rule:nonzero;stroke:none"
         id="path170" /><path
         d="m 9772.58,16271.9 c 0,0 54.47,22.4 136.17,34.9 40.85,6.7 88.53,11.9 139.55,12.1 51.1,-1 105.6,-8.8 160,-12.1 109,-7.8 217.9,-14.1 299.6,-22.2 81.7,-6.8 136.2,-12.7 136.2,-12.7 l 4.4,-5.6 -4.4,-4.4 c 0,0 -54.5,-6 -136.2,-12.8 -81.7,-8.1 -190.6,-14.4 -299.6,-22.1 -54.4,-3.4 -108.9,-11.2 -160,-12.1 -51.02,0.2 -98.7,5.3 -139.55,12.1 -81.7,12.5 -136.17,34.9 -136.17,34.9 l -2.95,7 2.95,3"
         style="fill:#687477;fill-opacity:1;fill-rule:nonzero;stroke:none"
         id="path172" /><path
         d="m 9772.58,16580.1 c 0,0 54.47,22.4 136.17,34.9 40.85,6.7 88.53,11.9 139.55,12.1 51.1,-1 105.6,-8.8 160,-12.1 109,-7.8 217.9,-14.1 299.6,-22.2 81.7,-6.8 136.2,-12.7 136.2,-12.7 l 4.4,-5.6 -4.4,-4.4 c 0,0 -54.5,-6 -136.2,-12.8 -81.7,-8.1 -190.6,-14.4 -299.6,-22.1 -54.4,-3.4 -108.9,-11.2 -160,-12.1 -51.02,0.2 -98.7,5.3 -139.55,12.1 -81.7,12.5 -136.17,34.9 -136.17,34.9 l -2.95,7 2.95,3"
         style="fill:#687477;fill-opacity:1;fill-rule:nonzero;stroke:none"
         id="path174" /><path
         d="m 9858.06,16956.8 c 0,0 54.46,22.4 136.17,34.9 40.87,6.8 88.57,11.9 139.57,12.1 51.1,-1 105.6,-8.7 160,-12.1 109,-7.8 217.9,-14 299.6,-22.1 81.7,-6.9 136.2,-12.8 136.2,-12.8 l 4.4,-5.5 -4.4,-4.5 c 0,0 -54.5,-5.9 -136.2,-12.8 -81.7,-8 -190.6,-14.3 -299.6,-22.1 -54.4,-3.3 -108.9,-11.1 -160,-12.1 -51,0.2 -98.7,5.4 -139.57,12.1 -81.71,12.5 -136.17,34.9 -136.17,34.9 l -2.95,7.1 2.95,2.9"
         style="fill:#687477;fill-opacity:1;fill-rule:nonzero;stroke:none"
         id="path176" /><path
         d="m 9880.86,17310.7 c 0,0 54.47,22.4 136.14,34.9 40.9,6.7 88.5,11.9 139.6,12.1 51.1,-1 105.5,-8.8 160,-12.1 108.9,-7.8 217.9,-14.1 299.6,-22.2 81.7,-6.8 136.2,-12.7 136.2,-12.7 l 4.4,-5.5 -4.4,-4.5 c 0,0 -54.5,-5.9 -136.2,-12.8 -81.7,-8.1 -190.7,-14.3 -299.6,-22.1 -54.5,-3.4 -108.9,-11.1 -160,-12.1 -51.1,0.2 -98.7,5.3 -139.6,12.1 -81.67,12.5 -136.14,34.9 -136.14,34.9 l -2.95,7 2.95,3"
         style="fill:#687477;fill-opacity:1;fill-rule:nonzero;stroke:none"
         id="path178" /><path
         d="m 9949.79,17721.6 c 0,0 54.51,22.4 136.21,35 40.8,6.7 88.5,11.8 139.6,12 51,-0.9 105.5,-8.7 160,-12 108.9,-7.8 217.8,-14.1 299.5,-22.2 81.7,-6.8 136.2,-12.8 136.2,-12.8 l 4.4,-5.5 -4.4,-4.4 c 0,0 -54.5,-6 -136.2,-12.8 -81.7,-8.1 -190.6,-14.4 -299.5,-22.1 -54.5,-3.4 -109,-11.2 -160,-12.1 -51.1,0.2 -98.8,5.3 -139.6,12.1 -81.7,12.5 -136.21,34.9 -136.21,34.9 l -2.94,7 2.94,2.9"
         style="fill:#687477;fill-opacity:1;fill-rule:nonzero;stroke:none"
         id="path180" /><path
         d="m 8502.89,4468 c 0,0 77.98,22.4 194.93,34.9 58.5,6.8 126.7,11.9 199.81,12.1 73.1,-1 151.05,-8.8 229.03,-12.1 155.94,-7.8 311.88,-14.1 428.84,-22.1 116.95,-7.7 194.93,-12.8 194.93,-12.8 l 4.66,-5.3 -4.66,-4.7 c 0,0 -77.98,-5.1 -194.93,-12.8 -116.96,-8 -272.9,-14.3 -428.84,-22.1 -77.98,-3.3 -155.93,-11.1 -229.03,-12.1 -73.11,0.2 -141.31,5.4 -199.81,12.1 -116.95,12.5 -194.93,34.9 -194.93,34.9 l -3.55,6.4 3.55,3.6"
         style="fill:#2b0308;fill-opacity:1;fill-rule:nonzero;stroke:none"
         id="path182" /><path
         d="m 8502.89,4749.3 c 0,0 30.35,22.4 75.89,34.9 22.77,6.8 49.33,12 77.8,12 28.45,-0.6 58.8,-9.1 89.16,-12 121.41,-12.4 242.84,-34.9 242.84,-34.9 l 4.08,-6 -4.08,-4 c 0,0 -121.43,-22.6 -242.84,-35 -30.36,-2.9 -60.71,-11.3 -89.16,-12 -28.47,0.1 -55.03,5.2 -77.8,12 -45.54,12.6 -75.89,35 -75.89,35 l -1.32,8.6 1.32,1.4"
         style="fill:#2b0308;fill-opacity:1;fill-rule:nonzero;stroke:none"
         id="path184" /><path
         d="m 8502.89,10221.5 c 0,0 17.1,22.4 42.78,34.9 12.84,6.9 27.8,12 43.85,12.1 16.03,-0.7 33.15,-9.2 50.26,-12.1 68.44,-12.3 136.87,-34.9 136.87,-34.9 l 3.34,-6.6 -3.34,-3.4 c 0,0 -68.43,-22.5 -136.87,-34.9 -17.11,-2.9 -34.23,-11.4 -50.26,-12 -16.05,0 -31.01,5.2 -43.85,12 -25.68,12.5 -42.78,34.9 -42.78,34.9 v 10"
         style="fill:#2b0308;fill-opacity:1;fill-rule:nonzero;stroke:none"
         id="path186" /><path
         d="m 8502.89,10556.4 c 0,0 44.63,22.4 111.57,34.9 33.47,6.9 72.52,12 114.35,12.1 41.84,-0.7 86.48,-9.2 131.08,-12.1 178.51,-12.4 357.02,-34.9 357.02,-34.9 l 4.37,-5.6 -4.37,-4.4 c 0,0 -178.51,-22.5 -357.02,-34.9 -44.6,-2.9 -89.24,-11.4 -131.08,-12.1 -41.83,0.1 -80.88,5.2 -114.35,12.1 -66.94,12.5 -111.57,34.9 -111.57,34.9 l -2.48,7.5 2.48,2.5"
         style="fill:#2b0308;fill-opacity:1;fill-rule:nonzero;stroke:none"
         id="path188" /><path
         d="m 8502.89,10898.9 c 0,0 77.98,22.3 194.93,34.9 58.5,6.7 126.7,11.9 199.81,12 73.1,-0.9 151.05,-8.7 229.03,-12 155.94,-7.8 311.88,-14.1 428.84,-22.2 116.95,-7.6 194.93,-12.7 194.93,-12.7 l 4.66,-5.4 -4.66,-4.6 c 0,0 -77.98,-5.2 -194.93,-12.8 -116.96,-8.1 -272.9,-14.4 -428.84,-22.1 -77.98,-3.4 -155.93,-11.2 -229.03,-12.1 -73.11,0.2 -141.31,5.3 -199.81,12.1 -116.95,12.5 -194.93,34.9 -194.93,34.9 l -3.55,6.4 3.55,3.6"
         style="fill:#2b0308;fill-opacity:1;fill-rule:nonzero;stroke:none"
         id="path190" /><path
         d="m 8502.89,11157.6 c 0,0 77.98,22.4 194.93,34.9 58.5,6.8 126.7,11.9 199.81,12.1 73.1,-0.9 151.05,-8.7 229.03,-12.1 155.94,-7.8 311.88,-14 428.84,-22.1 116.95,-7.7 194.93,-12.8 194.93,-12.8 l 4.66,-5.3 -4.66,-4.7 c 0,0 -77.98,-5.1 -194.93,-12.7 -116.96,-8.1 -272.9,-14.4 -428.84,-22.2 -77.98,-3.3 -155.93,-11.1 -229.03,-12.1 -73.11,0.2 -141.31,5.4 -199.81,12.1 -116.95,12.5 -194.93,34.9 -194.93,34.9 l -3.55,6.5 3.55,3.5"
         style="fill:#2b0308;fill-opacity:1;fill-rule:nonzero;stroke:none"
         id="path192" /><path
         d="m 9972.62,17972.8 c 0,0 54.48,22.4 136.18,34.9 40.8,6.7 88.5,11.9 139.6,12.1 51,-1 105.5,-8.8 160,-12.1 108.9,-7.8 217.9,-14 299.6,-22.1 81.7,-6.9 136.1,-12.8 136.1,-12.8 l 4.5,-5.5 -4.5,-4.5 c 0,0 -54.4,-5.9 -136.1,-12.7 -81.7,-8.2 -190.7,-14.4 -299.6,-22.2 -54.5,-3.3 -109,-11.1 -160,-12.1 -51.1,0.2 -98.8,5.4 -139.6,12.1 -81.7,12.5 -136.18,34.9 -136.18,34.9 l -2.94,7.1 2.94,2.9"
         style="fill:#687477;fill-opacity:1;fill-rule:nonzero;stroke:none"
         id="path194" /><path
         d="m 9726.92,18246.8 c 0,0 42,22.4 104.99,34.9 31.48,6.9 68.24,12 107.61,12 39.37,-0.6 81.38,-9.1 123.38,-12 167.9,-12.4 335.9,-34.9 335.9,-34.9 l 4.3,-5.7 -4.3,-4.3 c 0,0 -168,-22.5 -335.9,-34.9 -42,-2.9 -84.01,-11.4 -123.38,-12.1 -39.37,0.1 -76.13,5.2 -107.61,12.1 -62.99,12.5 -104.99,34.9 -104.99,34.9 l -2.33,7.6 2.33,2.4"
         style="fill:#687477;fill-opacity:1;fill-rule:nonzero;stroke:none"
         id="path196" /><path
         d="m 9726.92,18458 c 0,-0.1 42,22.3 104.99,34.9 31.48,6.8 68.24,12 107.61,12 39.37,-0.6 81.38,-9.1 123.38,-12 167.9,-12.4 335.9,-34.9 335.9,-34.9 l 4.3,-5.7 -4.3,-4.3 c 0,0 -168,-22.6 -335.9,-34.9 -42,-3 -84.01,-11.4 -123.38,-12.1 -39.37,0.1 -76.13,5.2 -107.61,12.1 -62.99,12.5 -104.99,34.9 -104.99,34.9 l -2.33,7.6 2.33,2.4"
         style="fill:#687477;fill-opacity:1;fill-rule:nonzero;stroke:none"
         id="path198" /><path
         d="m 9792.82,18697.7 c 0,0 41.99,22.4 104.96,34.9 31.51,6.9 68.26,12 107.62,12.1 39.4,-0.7 81.4,-9.2 123.4,-12.1 167.9,-12.4 335.9,-34.9 335.9,-34.9 l 4.3,-5.7 -4.3,-4.3 c 0,0 -168,-22.5 -335.9,-34.9 -42,-2.9 -84,-11.4 -123.4,-12.1 -39.36,0.1 -76.11,5.2 -107.62,12.1 -62.97,12.5 -104.96,34.9 -104.96,34.9 l -2.32,7.7 2.32,2.3"
         style="fill:#687477;fill-opacity:1;fill-rule:nonzero;stroke:none"
         id="path200" /><path
         d="m 9841.46,18874.6 c 0,0 42.01,22.4 105,35 31.5,6.8 68.24,12 107.64,12 39.3,-0.7 81.3,-9.1 123.3,-12 168,-12.4 336,-35 336,-35 l 4.3,-5.6 -4.3,-4.3 c 0,0 -168,-22.6 -336,-34.9 -42,-3 -84,-11.5 -123.3,-12.1 -39.4,0 -76.14,5.2 -107.64,12.1 -62.99,12.5 -105,34.9 -105,34.9 l -2.33,7.6 2.33,2.3"
         style="fill:#687477;fill-opacity:1;fill-rule:nonzero;stroke:none"
         id="path202" /></g></g></svg>
